<?xml version="1.0" encoding="utf-8"?>
<!-- Generator: Adobe Illustrator 16.0.0, SVG Export Plug-In . SVG Version: 6.00 Build 0)  -->
<!DOCTYPE svg PUBLIC "-//W3C//DTD SVG 1.1//EN" "http://www.w3.org/Graphics/SVG/1.1/DTD/svg11.dtd">
<svg version="1.1" id="Layer_1" xmlns="http://www.w3.org/2000/svg" xmlns:xlink="http://www.w3.org/1999/xlink" x="0px" y="0px"
	 width="247.197px" height="78.288px" viewBox="0 0 247.197 78.288" enable-background="new 0 0 247.197 78.288"
	 xml:space="preserve">
<g>
	<g>
		<g>
			<path fill="#00406F" d="M75.604,55.603c-2.126,0-4.242-0.17-6.3-0.515c-2.069-0.351-3.93-0.888-5.538-1.604
				c-1.637-0.727-2.979-1.657-3.984-2.756c-1.047-1.139-1.575-2.499-1.575-4.033V35.568h3.059v10.489
				c0,1.123,0.376,2.076,1.15,2.923c0.799,0.878,1.888,1.615,3.206,2.21c1.348,0.596,2.913,1.058,4.66,1.363
				c1.739,0.309,3.553,0.464,5.385,0.464c1.835,0,3.659-0.155,5.412-0.464c1.75-0.306,3.328-0.768,4.689-1.363
				c1.329-0.595,2.42-1.337,3.22-2.21c0.778-0.847,1.148-1.804,1.148-2.923V35.568h2.897v11.128c0,1.532-0.532,2.89-1.574,4.033
				c-1.01,1.099-2.355,2.029-4.001,2.756c-1.633,0.716-3.495,1.253-5.546,1.604C79.874,55.433,77.743,55.603,75.604,55.603
				L75.604,55.603z"/>
			<polygon fill="#00406F" points="129.244,55.138 100.039,38.963 100.039,55.138 97.045,55.138 97.045,35.534 99.678,35.534 
				128.882,51.531 128.882,35.534 131.876,35.534 131.876,55.138 			"/>
			<rect x="136.23" y="35.534" fill="#00406F" width="2.99" height="19.604"/>
			<polygon fill="#00406F" points="156.292,55.138 156.292,38.216 141.13,38.216 141.13,35.534 174.445,35.534 174.445,38.216 
				159.287,38.216 159.287,55.138 			"/>
			<polygon fill="#00406F" points="176.392,55.138 176.392,35.534 208.326,35.534 208.326,38.12 179.388,38.12 179.388,43.347 
				198.691,43.347 198.691,45.938 179.388,45.938 179.388,52.542 208.326,52.542 208.326,55.138 			"/>
			<path fill="#00406F" d="M211.562,55.138V35.534h17.395c3.078,0,5.785,0.249,8.041,0.749c2.271,0.503,4.184,1.205,5.672,2.08
				c1.506,0.891,2.648,1.939,3.395,3.122c0.754,1.197,1.133,2.497,1.133,3.865c0,1.326-0.387,2.6-1.152,3.8
				c-0.756,1.181-1.92,2.235-3.449,3.123c-1.504,0.866-3.414,1.574-5.678,2.093c-2.254,0.513-4.924,0.772-7.961,0.772H211.562z
				 M228.957,52.476c2.578,0,4.865-0.195,6.785-0.582c1.898-0.378,3.492-0.913,4.73-1.566c1.217-0.641,2.133-1.402,2.727-2.258
				c0.584-0.844,0.877-1.733,0.877-2.72c0-0.987-0.283-1.888-0.867-2.747c-0.574-0.86-1.48-1.616-2.686-2.246
				c-1.229-0.649-2.813-1.172-4.717-1.559c-1.922-0.383-4.223-0.582-6.85-0.582h-14.4v14.26H228.957z"/>
		</g>
		<g>
			<path fill="#00406F" d="M67.738,61.913c-0.045,1.772-0.065,3.549-0.065,5.317c0,3.507-1.437,5.259-4.302,5.259
				c-1.428,0-2.497-0.388-3.217-1.166c-0.716-0.773-1.076-2.169-1.076-4.174c0-1.778-0.019-3.523-0.069-5.236h2.242
				c-0.067,1.784-0.105,3.502-0.105,5.159c0,1.451,0.187,2.443,0.553,2.984c0.373,0.542,0.939,0.808,1.715,0.808
				c0.809,0,1.388-0.266,1.747-0.8c0.361-0.534,0.537-1.541,0.537-3.009c0-1.605-0.032-3.326-0.102-5.143H67.738z"/>
			<path fill="#00406F" d="M76.745,72.216h-2.107c0.12-1.331,0.176-2.683,0.176-4.051c0-0.828-0.123-1.391-0.371-1.685
				c-0.241-0.297-0.615-0.448-1.117-0.448c-0.602,0-1.175,0.206-1.71,0.622c0.024,2.058,0.038,3.914,0.038,5.562h-2.133
				c0.104-1.647,0.145-2.947,0.145-3.893c0-1.261-0.131-2.451-0.389-3.569l2.03-0.223l0.136,0.839h0.129
				c0.715-0.626,1.553-0.934,2.489-0.934c0.815,0,1.467,0.188,1.952,0.572c0.487,0.383,0.732,1.091,0.732,2.117
				c0,0.154-0.003,0.359-0.02,0.614C76.713,68,76.71,68.26,76.71,68.532C76.71,69.243,76.722,70.472,76.745,72.216z"/>
			<path fill="#00406F" d="M80.751,72.216H78.62c0.077-1.089,0.111-2.346,0.111-3.758c0-1.403-0.092-2.636-0.267-3.69l2.278-0.229
				c-0.066,1.024-0.102,2.33-0.102,3.92C80.642,69.819,80.677,71.069,80.751,72.216z M81.114,62.306
				c0,0.359-0.123,0.672-0.367,0.941c-0.246,0.274-0.585,0.403-1.021,0.403c-0.372,0-0.663-0.112-0.87-0.348
				c-0.216-0.232-0.315-0.512-0.315-0.843c0-0.356,0.127-0.666,0.368-0.928c0.25-0.263,0.588-0.399,1.035-0.399
				c0.374,0,0.662,0.114,0.868,0.342C81.017,61.706,81.114,61.987,81.114,62.306z"/>
			<path fill="#00406F" d="M87.236,70.737l-0.132,1.41c-0.371,0.161-0.833,0.237-1.397,0.237c-0.854,0-1.497-0.232-1.933-0.692
				c-0.436-0.47-0.648-1.363-0.648-2.688c0-0.797,0.01-1.699,0.013-2.707c-0.269,0-0.63,0.016-1.091,0.045l0.055-1.557
				c0.413,0.033,0.787,0.05,1.137,0.05c0.002-0.284,0.019-1.02,0.061-2.21l1.878-0.232c-0.077,1.05-0.119,1.858-0.119,2.442
				c0.442,0,1.11-0.027,1.987-0.067l-0.064,1.574c-0.804-0.029-1.459-0.045-1.952-0.045c-0.013,0.698-0.02,1.438-0.02,2.208
				c0,0.942,0.097,1.566,0.288,1.891c0.189,0.321,0.525,0.482,1,0.482C86.595,70.878,86.903,70.831,87.236,70.737z"/>
			<path fill="#00406F" d="M95.31,67.649c0,0.271-0.02,0.623-0.053,1.052l-5.101,0.091c0.071,0.592,0.333,1.094,0.771,1.487
				c0.439,0.396,1.014,0.6,1.724,0.6c0.794,0,1.636-0.126,2.523-0.361l-0.151,1.536c-0.729,0.265-1.637,0.394-2.714,0.394
				c-1.358,0-2.403-0.384-3.127-1.148c-0.726-0.762-1.091-1.682-1.091-2.761c0-1.126,0.346-2.099,1.029-2.923
				c0.694-0.829,1.649-1.239,2.872-1.239c1.123,0,1.955,0.302,2.497,0.908C95.032,65.889,95.31,66.678,95.31,67.649z M93.45,67.582
				c0-1.219-0.516-1.82-1.552-1.82c-0.99,0-1.571,0.625-1.755,1.883L93.45,67.582z"/>
			<path fill="#00406F" d="M103.979,72.209l-1.879,0.066c-0.031-0.188-0.048-0.379-0.048-0.577h-0.122
				c-0.578,0.5-1.324,0.748-2.224,0.748c-1.013,0-1.819-0.369-2.413-1.104c-0.598-0.728-0.895-1.601-0.895-2.607
				c0-1.154,0.326-2.164,0.972-3.021c0.651-0.861,1.556-1.292,2.707-1.292c0.751,0,1.313,0.146,1.688,0.421h0.109
				c0-1.243-0.064-2.494-0.177-3.754l2.235-0.063c-0.084,1.23-0.129,2.999-0.129,5.299C103.805,68.67,103.866,70.632,103.979,72.209
				z M101.995,70.417c0-1.688-0.036-3.08-0.12-4.185c-0.364-0.25-0.8-0.38-1.307-0.38c-0.696,0-1.22,0.26-1.552,0.776
				c-0.339,0.522-0.504,1.15-0.504,1.902c0,0.664,0.162,1.235,0.49,1.718c0.33,0.484,0.781,0.725,1.359,0.725
				C101.14,70.974,101.685,70.789,101.995,70.417z"/>
			<path fill="#00406F" d="M116.163,69.408c0,2.062-1.484,3.099-4.453,3.099c-1.014,0-1.945-0.122-2.811-0.366l0.384-1.765
				c0.861,0.294,1.668,0.442,2.427,0.442c0.848,0,1.455-0.081,1.816-0.249c0.375-0.159,0.56-0.434,0.56-0.821
				c0-0.403-0.176-0.738-0.521-1.012c-0.304-0.24-0.91-0.56-1.83-0.951c-0.839-0.361-1.451-0.745-1.861-1.176
				c-0.52-0.531-0.771-1.182-0.771-1.967c0-0.907,0.336-1.62,1.014-2.13c0.668-0.51,1.635-0.767,2.896-0.767
				c1.037,0,1.908,0.088,2.607,0.264l-0.297,1.75c-0.707-0.253-1.477-0.386-2.31-0.386c-1.245,0-1.867,0.333-1.867,1.002
				c0,0.347,0.148,0.638,0.436,0.86c0.261,0.191,0.807,0.456,1.658,0.797c0.904,0.366,1.578,0.766,2.029,1.205
				C115.862,67.83,116.163,68.547,116.163,69.408z"/>
			<path fill="#00406F" d="M124.092,72.209l-1.867,0.066c-0.088-0.223-0.133-0.425-0.133-0.604h-0.098
				c-0.58,0.49-1.367,0.747-2.352,0.747c-0.66,0-1.209-0.188-1.645-0.554c-0.436-0.362-0.656-0.854-0.656-1.458
				c0-0.802,0.342-1.463,1.023-1.975c0.678-0.507,1.869-0.784,3.564-0.818c0.01-0.09,0.018-0.177,0.018-0.268
				c0-0.566-0.133-0.942-0.41-1.126c-0.281-0.184-0.781-0.274-1.518-0.274c-0.793,0-1.57,0.108-2.332,0.316l0.172-1.455
				c0.719-0.242,1.732-0.371,3.041-0.371c0.955,0,1.695,0.2,2.215,0.602c0.516,0.401,0.781,1.102,0.781,2.11
				c0,0.215-0.014,0.624-0.033,1.207c-0.01,0.587-0.02,0.979-0.02,1.174C123.844,70.616,123.924,71.513,124.092,72.209z
				 M121.979,70.564c-0.031-0.713-0.049-1.329-0.049-1.847c-1.803,0-2.697,0.461-2.697,1.371c0,0.629,0.395,0.942,1.182,0.942
				C121.042,71.031,121.559,70.878,121.979,70.564z"/>
			<path fill="#00406F" d="M130.574,60.985l-0.287,1.408c-0.301-0.071-0.607-0.108-0.924-0.108c-0.387,0-0.645,0.168-0.787,0.522
				c-0.145,0.348-0.217,1.021-0.217,2.028c0.469,0,1.121-0.027,1.939-0.067l-0.059,1.574c-0.824-0.029-1.457-0.045-1.881-0.045
				c0,1.989,0.043,3.965,0.123,5.919h-2.088c0.072-1.93,0.113-3.904,0.113-5.919c-0.311,0-0.771,0.016-1.385,0.045l0.063-1.568
				c0.559,0.04,1,0.062,1.322,0.062c0-2.658,0.891-3.984,2.678-3.984C129.72,60.851,130.179,60.892,130.574,60.985z"/>
			<path fill="#00406F" d="M138.369,67.649c0,0.271-0.02,0.623-0.053,1.052l-5.1,0.091c0.074,0.592,0.332,1.094,0.768,1.487
				c0.438,0.396,1.016,0.6,1.723,0.6c0.797,0,1.633-0.126,2.529-0.361l-0.158,1.536c-0.729,0.265-1.629,0.394-2.707,0.394
				c-1.365,0-2.414-0.384-3.133-1.148c-0.727-0.762-1.088-1.682-1.088-2.761c0-1.126,0.342-2.099,1.029-2.923
				c0.691-0.829,1.646-1.239,2.873-1.239c1.119,0,1.945,0.302,2.496,0.908C138.087,65.889,138.369,66.678,138.369,67.649z
				 M136.507,67.582c0-1.219-0.518-1.82-1.549-1.82c-0.988,0-1.572,0.625-1.762,1.883L136.507,67.582z"/>
			<path fill="#00406F" d="M144.482,70.737l-0.139,1.41c-0.367,0.161-0.832,0.237-1.393,0.237c-0.85,0-1.494-0.232-1.93-0.692
				c-0.434-0.47-0.643-1.363-0.643-2.688c0-0.797,0.004-1.699,0.014-2.707c-0.275,0-0.637,0.016-1.094,0.045l0.051-1.557
				c0.406,0.033,0.787,0.05,1.137,0.05c0.002-0.284,0.025-1.02,0.057-2.21l1.885-0.232c-0.08,1.05-0.123,1.858-0.123,2.442
				c0.445,0,1.107-0.027,1.984-0.067l-0.061,1.574c-0.801-0.029-1.453-0.045-1.955-0.045c-0.01,0.698-0.014,1.438-0.014,2.208
				c0,0.942,0.094,1.566,0.283,1.891c0.188,0.321,0.527,0.482,1.008,0.482C143.837,70.878,144.15,70.831,144.482,70.737z"/>
			<path fill="#00406F" d="M152.458,64.699c0,0.343-0.377,1.424-1.133,3.262c-0.861,2.104-1.396,3.544-1.594,4.304
				c-0.346,1.318-0.807,2.236-1.381,2.731c-0.568,0.49-1.41,0.732-2.523,0.732l-0.154-1.529c0.652,0,1.188-0.188,1.609-0.557
				c0.424-0.372,0.637-0.871,0.637-1.495c0-0.626-0.479-1.997-1.426-4.124c-0.949-2.119-1.43-3.227-1.43-3.324h2.451
				c0,0.182,0.238,1.077,0.721,2.681c0.48,1.61,0.719,2.586,0.719,2.949h0.115c0-0.305,0.217-1.208,0.648-2.715
				c0.439-1.501,0.66-2.474,0.66-2.915H152.458z"/>
		</g>
	</g>
	<g>
		<path fill="#00406F" d="M4.434,56.34l14.563-16.694c1.968-2.221,1.408-4.311-0.57-6.031l-6.705-5.737
			c-1.385-1.158-4.453-3.852-4.814-3.648c-0.359,0.209,1.229,4.023,2.376,7.601c1.394,4.323,1.237,6.777-1.524,12.551L2.298,55.483
			c-0.665,1.449-2.519,5.233-2.276,5.473C0.265,61.199,2.843,58.087,4.434,56.34z"/>
		<path fill="#FFC846" d="M43.913,24.864c-2.652,5.199-3.989,10.411,0.969,18.654c3.486,5.788,8.116,13.438,7.698,13.991
			c-0.433,0.573-6.79-3.915-13.12-8.534l-12.604-9.021c-3.435-2.52-2.378-4.679-0.076-7.335l12.079-13.894
			c1.186-1.365,16.442-19.039,16.97-18.721C56.274,0.274,51.912,9.05,43.913,24.864z"/>
		<path fill="#00406F" d="M31.782,62.972c-7.123-5.104-10.795-8.21-19.896-2.646c-3.877,2.369-5.831,3.767-6.146,3.413
			c-0.321-0.344,2.944-5.462,3.575-6.474l9.852-15.559c2.293-3.865,4.529-3.366,6.631-0.102l16.508,22.633
			c4.46,6.295,9.32,12.956,8.869,13.298C50.776,77.843,41.61,70.017,31.782,62.972z"/>
		<path fill="#00406F" d="M40.392,6.038c-0.232-0.148-4.113,3.9-10.721,10.488c-7.113,7.099-9.832,5.513-15.449,3.075
			c-1.127-0.493-5.32-2.478-5.559-2.143c-0.242,0.337,1.143,2.065,1.818,2.999c0.678,0.934,8.991,12.016,8.991,12.016
			c1.973,2.541,3.593,2.927,5.357,0.057c0,0,11.64-19.445,12.159-20.307C37.847,10.8,40.614,6.188,40.392,6.038z"/>
	</g>
</g>
</svg>
